<svg width="141" height="40" viewBox="0 0 141 40" fill="none" xmlns="http://www.w3.org/2000/svg">
<circle cx="19.2208" cy="20.7792" r="18.2208" stroke="#111111" stroke-width="2"/>
<path d="M12.4481 22.8377H22.5974C24.473 22.8377 25.9935 24.3581 25.9935 26.2338C25.9935 28.1094 24.473 29.6299 22.5974 29.6299H12.4481V22.8377ZM12.4481 12.4481H20.5195C22.3951 12.4481 23.9156 13.9685 23.9156 15.8442C23.9156 17.7198 22.3951 19.2403 20.5195 19.2403H12.4481V12.4481Z" stroke="#111111"/>
<path d="M46.5426 32V8H49.3082V16.8594H49.5426C49.7457 16.5469 50.027 16.1484 50.3864 15.6641C50.7535 15.1719 51.277 14.7344 51.9567 14.3516C52.6442 13.9609 53.5739 13.7656 54.7457 13.7656C56.2614 13.7656 57.5973 14.1445 58.7535 14.9023C59.9098 15.6602 60.8121 16.7344 61.4606 18.125C62.109 19.5156 62.4332 21.1562 62.4332 23.0469C62.4332 24.9531 62.109 26.6055 61.4606 28.0039C60.8121 29.3945 59.9137 30.4727 58.7653 31.2383C57.6168 31.9961 56.2926 32.375 54.7926 32.375C53.6364 32.375 52.7106 32.1836 52.0153 31.8008C51.3199 31.4102 50.7848 30.9687 50.4098 30.4766C50.0348 29.9766 49.7457 29.5625 49.5426 29.2344H49.2145V32H46.5426ZM49.2614 23C49.2614 24.3594 49.4606 25.5586 49.859 26.5977C50.2574 27.6289 50.8395 28.4375 51.6051 29.0234C52.3707 29.6016 53.3082 29.8906 54.4176 29.8906C55.5739 29.8906 56.5387 29.5859 57.3121 28.9766C58.0934 28.3594 58.6793 27.5312 59.0699 26.4922C59.4684 25.4453 59.6676 24.2812 59.6676 23C59.6676 21.7344 59.4723 20.5937 59.0817 19.5781C58.6989 18.5547 58.1168 17.7461 57.3356 17.1523C56.5621 16.5508 55.5895 16.25 54.4176 16.25C53.2926 16.25 52.3473 16.5352 51.5817 17.1055C50.816 17.668 50.2379 18.457 49.8473 19.4727C49.4567 20.4805 49.2614 21.6562 49.2614 23ZM74.2106 32.375C72.4762 32.375 70.9801 31.9922 69.7223 31.2266C68.4723 30.4531 67.5074 29.375 66.8278 27.9922C66.1559 26.6016 65.8199 24.9844 65.8199 23.1406C65.8199 21.2969 66.1559 19.6719 66.8278 18.2656C67.5074 16.8516 68.4528 15.75 69.6637 14.9609C70.8824 14.1641 72.3043 13.7656 73.9293 13.7656C74.8668 13.7656 75.7926 13.9219 76.7067 14.2344C77.6207 14.5469 78.4528 15.0547 79.2028 15.7578C79.9528 16.4531 80.5504 17.375 80.9957 18.5234C81.441 19.6719 81.6637 21.0859 81.6637 22.7656V23.9375H67.7887V21.5469H78.8512C78.8512 20.5312 78.6481 19.625 78.2418 18.8281C77.8434 18.0312 77.2731 17.4023 76.5309 16.9414C75.7965 16.4805 74.9293 16.25 73.9293 16.25C72.8278 16.25 71.8746 16.5234 71.0699 17.0703C70.2731 17.6094 69.6598 18.3125 69.2301 19.1797C68.8004 20.0469 68.5856 20.9766 68.5856 21.9687V23.5625C68.5856 24.9219 68.8199 26.0742 69.2887 27.0195C69.7653 27.957 70.4254 28.6719 71.2692 29.1641C72.1129 29.6484 73.0934 29.8906 74.2106 29.8906C74.9371 29.8906 75.5934 29.7891 76.1793 29.5859C76.7731 29.375 77.2848 29.0625 77.7145 28.6484C78.1442 28.2266 78.4762 27.7031 78.7106 27.0781L81.3824 27.8281C81.1012 28.7344 80.6285 29.5312 79.9645 30.2187C79.3004 30.8984 78.4801 31.4297 77.5035 31.8125C76.527 32.1875 75.4293 32.375 74.2106 32.375ZM97.2145 24.6406V14H99.9801V32H97.2145V28.9531H97.027C96.6051 29.8672 95.9489 30.6445 95.0582 31.2852C94.1676 31.918 93.0426 32.2344 91.6832 32.2344C90.5582 32.2344 89.5582 31.9883 88.6832 31.4961C87.8082 30.9961 87.1207 30.2461 86.6207 29.2461C86.1207 28.2383 85.8707 26.9687 85.8707 25.4375V14H88.6364V25.25C88.6364 26.5625 89.0035 27.6094 89.7379 28.3906C90.4801 29.1719 91.4254 29.5625 92.5739 29.5625C93.2614 29.5625 93.9606 29.3867 94.6715 29.0352C95.3903 28.6836 95.9918 28.1445 96.4762 27.418C96.9684 26.6914 97.2145 25.7656 97.2145 24.6406ZM107.811 21.1719V32H105.046V14H107.717V16.8125H107.952C108.374 15.8984 109.014 15.1641 109.874 14.6094C110.733 14.0469 111.842 13.7656 113.202 13.7656C114.421 13.7656 115.487 14.0156 116.401 14.5156C117.315 15.0078 118.026 15.7578 118.534 16.7656C119.042 17.7656 119.296 19.0312 119.296 20.5625V32H116.53V20.75C116.53 19.3359 116.163 18.2344 115.428 17.4453C114.694 16.6484 113.686 16.25 112.405 16.25C111.522 16.25 110.733 16.4414 110.038 16.8242C109.35 17.207 108.807 17.7656 108.409 18.5C108.01 19.2344 107.811 20.125 107.811 21.1719ZM137.099 18.0312L134.615 18.7344C134.459 18.3203 134.228 17.918 133.923 17.5273C133.627 17.1289 133.22 16.8008 132.705 16.543C132.189 16.2852 131.529 16.1562 130.724 16.1562C129.623 16.1562 128.705 16.4102 127.97 16.918C127.244 17.418 126.88 18.0547 126.88 18.8281C126.88 19.5156 127.13 20.0586 127.63 20.457C128.13 20.8555 128.912 21.1875 129.974 21.4531L132.646 22.1094C134.255 22.5 135.455 23.0977 136.244 23.9023C137.033 24.6992 137.427 25.7266 137.427 26.9844C137.427 28.0156 137.13 28.9375 136.537 29.75C135.951 30.5625 135.13 31.2031 134.076 31.6719C133.021 32.1406 131.795 32.375 130.396 32.375C128.56 32.375 127.041 31.9766 125.838 31.1797C124.634 30.3828 123.873 29.2187 123.552 27.6875L126.177 27.0312C126.427 28 126.9 28.7266 127.595 29.2109C128.298 29.6953 129.216 29.9375 130.349 29.9375C131.638 29.9375 132.662 29.6641 133.42 29.1172C134.185 28.5625 134.568 27.8984 134.568 27.125C134.568 26.5 134.349 25.9766 133.912 25.5547C133.474 25.125 132.802 24.8047 131.896 24.5937L128.896 23.8906C127.248 23.5 126.037 22.8945 125.263 22.0742C124.498 21.2461 124.115 20.2109 124.115 18.9687C124.115 17.9531 124.4 17.0547 124.97 16.2734C125.548 15.4922 126.334 14.8789 127.326 14.4336C128.326 13.9883 129.459 13.7656 130.724 13.7656C132.505 13.7656 133.904 14.1562 134.92 14.9375C135.943 15.7187 136.67 16.75 137.099 18.0312Z" fill="white"/>
</svg>
