<svg width="194" height="56" viewBox="0 0 194 56" fill="none" xmlns="http://www.w3.org/2000/svg">
<circle cx="26.4286" cy="28.4286" r="25.0312" stroke="#E82B4B" stroke-width="2.79481"/>
<path d="M16.6987 30.9844H30.6429C33.2156 30.9844 35.3013 33.0701 35.3013 35.6429C35.3013 38.2156 33.2156 40.3013 30.6429 40.3013H16.6987V30.9844ZM16.6987 16.6987H27.7857C30.3585 16.6987 32.4442 18.7844 32.4442 21.3571C32.4442 23.9299 30.3585 26.0156 27.7857 26.0156H16.6987V16.6987Z" stroke="#E82B4B" stroke-width="1.39741"/>
<path d="M64.0612 45V11.4622H67.9259V23.8424H68.2534C68.5373 23.4057 68.9303 22.8489 69.4325 22.172C69.9456 21.4843 70.6771 20.8729 71.6269 20.3379C72.5876 19.7921 73.8867 19.5191 75.5243 19.5191C77.6423 19.5191 79.5091 20.0486 81.1249 21.1076C82.7406 22.1666 84.0016 23.6677 84.9077 25.611C85.8138 27.5542 86.2669 29.8469 86.2669 32.4888C86.2669 35.1526 85.8138 37.4616 84.9077 39.4158C84.0016 41.3591 82.7461 42.8657 81.1412 43.9356C79.5364 44.9945 77.6859 45.524 75.5898 45.524C73.9741 45.524 72.6804 45.2566 71.7087 44.7216C70.7371 44.1757 69.9893 43.5589 69.4653 42.8711C68.9412 42.1724 68.5373 41.5938 68.2534 41.1353H67.7949V45H64.0612ZM67.8604 32.4233C67.8604 34.3229 68.1388 35.9987 68.6956 37.4507C69.2524 38.8918 70.0657 40.0217 71.1356 40.8405C72.2055 41.6484 73.5156 42.0523 75.0658 42.0523C76.6816 42.0523 78.0298 41.6266 79.1106 40.775C80.2024 39.9126 81.0212 38.7553 81.567 37.3033C82.1238 35.8404 82.4022 34.2138 82.4022 32.4233C82.4022 30.6547 82.1293 29.0608 81.5834 27.6416C81.0484 26.2114 80.2351 25.0815 79.1434 24.2518C78.0626 23.4111 76.7034 22.9908 75.0658 22.9908C73.4937 22.9908 72.1727 23.3893 71.1028 24.1863C70.0329 24.9723 69.2251 26.075 68.6792 27.4942C68.1333 28.9025 67.8604 30.5456 67.8604 32.4233ZM102.725 45.524C100.301 45.524 98.2104 44.9891 96.4527 43.9192C94.7059 42.8384 93.3576 41.3318 92.4078 39.3995C91.469 37.4562 90.9995 35.1963 90.9995 32.6198C90.9995 30.0434 91.469 27.7726 92.4078 25.8075C93.3576 23.8315 94.6786 22.2921 96.3708 21.1895C98.0739 20.0759 100.061 19.5191 102.332 19.5191C103.642 19.5191 104.935 19.7375 106.213 20.1742C107.49 20.6109 108.653 21.3205 109.701 22.303C110.749 23.2747 111.584 24.5629 112.206 26.1678C112.829 27.7726 113.14 29.7486 113.14 32.0958V33.7334H93.7507V30.3927H109.209C109.209 28.9735 108.926 27.7071 108.358 26.5935C107.801 25.48 107.004 24.6011 105.967 23.957C104.941 23.3129 103.729 22.9908 102.332 22.9908C100.792 22.9908 99.4604 23.3729 98.3359 24.1371C97.2223 24.8904 96.3653 25.873 95.7649 27.0848C95.1644 28.2966 94.8642 29.5958 94.8642 30.9823V33.2094C94.8642 35.109 95.1917 36.7193 95.8468 38.0403C96.5127 39.3503 97.4352 40.3493 98.6143 41.037C99.7934 41.7139 101.163 42.0523 102.725 42.0523C103.74 42.0523 104.657 41.9104 105.476 41.6266C106.305 41.3318 107.021 40.8951 107.621 40.3165C108.221 39.727 108.685 38.9955 109.013 38.1221L112.747 39.1702C112.354 40.4366 111.693 41.5502 110.765 42.5109C109.837 43.4607 108.691 44.203 107.326 44.738C105.962 45.262 104.428 45.524 102.725 45.524ZM134.87 34.716V19.8467H138.735V45H134.87V40.7423H134.608C134.019 42.0196 133.102 43.1059 131.857 44.0011C130.613 44.8854 129.041 45.3275 127.141 45.3275C125.569 45.3275 124.172 44.9836 122.949 44.2958C121.726 43.5971 120.765 42.5491 120.067 41.1517C119.368 39.7433 119.019 37.9693 119.019 35.8295V19.8467H122.883V35.5675C122.883 37.4016 123.396 38.8645 124.423 39.9562C125.46 41.048 126.781 41.5938 128.386 41.5938C129.346 41.5938 130.323 41.3482 131.317 40.8569C132.321 40.3656 133.162 39.6123 133.839 38.597C134.527 37.5817 134.87 36.288 134.87 34.716ZM149.678 29.8687V45H145.814V19.8467H149.547V23.7769H149.875C150.464 22.4996 151.36 21.4733 152.561 20.6982C153.761 19.9122 155.312 19.5191 157.211 19.5191C158.914 19.5191 160.405 19.8685 161.682 20.5672C162.959 21.255 163.953 22.303 164.662 23.7114C165.372 25.1088 165.727 26.8774 165.727 29.0172V45H161.862V29.2792C161.862 27.3031 161.349 25.7638 160.323 24.6612C159.296 23.5476 157.888 22.9908 156.098 22.9908C154.864 22.9908 153.761 23.2583 152.79 23.7932C151.829 24.3282 151.07 25.1088 150.514 26.135C149.957 27.1612 149.678 28.4058 149.678 29.8687ZM190.606 25.48L187.134 26.4625C186.916 25.8839 186.594 25.3217 186.168 24.7758C185.753 24.219 185.185 23.7605 184.465 23.4002C183.744 23.04 182.822 22.8598 181.697 22.8598C180.158 22.8598 178.875 23.2146 177.849 23.9243C176.834 24.623 176.326 25.5127 176.326 26.5935C176.326 27.5542 176.675 28.313 177.374 28.8698C178.073 29.4265 179.164 29.8905 180.649 30.2617L184.383 31.1788C186.632 31.7246 188.308 32.5598 189.41 33.6843C190.513 34.7978 191.064 36.2335 191.064 37.9911C191.064 39.4322 190.649 40.7204 189.82 41.8558C189.001 42.9912 187.855 43.8864 186.381 44.5415C184.907 45.1965 183.193 45.524 181.239 45.524C178.673 45.524 176.55 44.9672 174.869 43.8537C173.187 42.7401 172.123 41.1135 171.675 38.9737L175.343 38.0566C175.693 39.4104 176.353 40.4257 177.325 41.1025C178.307 41.7794 179.59 42.1178 181.173 42.1178C182.975 42.1178 184.405 41.7357 185.464 40.9715C186.534 40.1964 187.069 39.2684 187.069 38.1876C187.069 37.3143 186.763 36.5828 186.151 35.9933C185.54 35.3928 184.601 34.9452 183.335 34.6505L179.143 33.6679C176.839 33.122 175.147 32.276 174.066 31.1296C172.996 29.9724 172.461 28.5259 172.461 26.79C172.461 25.3708 172.86 24.1153 173.657 23.0236C174.465 21.9319 175.562 21.0749 176.948 20.4526C178.346 19.8303 179.929 19.5191 181.697 19.5191C184.186 19.5191 186.141 20.065 187.56 21.1567C188.99 22.2485 190.005 23.6895 190.606 25.48Z" fill="#111111"/>
</svg>
